<svg width="100" height="100" viewBox="0 0 100 100" fill="none" xmlns="http://www.w3.org/2000/svg">
<path d="M49.9984 0C22.4288 0 0 22.4313 0 49.9992C0 77.572 22.4288 100 49.9984 100C77.5679 100 99.9959 77.572 99.9959 49.9992C99.9959 22.4313 77.5679 0 49.9984 0ZM73.1721 60.1209L71.3556 61.9391C70.9463 62.3468 70.2281 62.3468 69.8204 61.9391L50.5828 42.7031C50.4304 42.5499 50.231 42.4737 50.0316 42.4737C49.8322 42.4737 49.6312 42.5499 49.478 42.7031L30.2704 61.9075C29.8643 62.3119 29.1461 62.3119 28.7384 61.9075L26.9203 60.0893C26.4988 59.6686 26.4988 58.9788 26.9203 58.5589L49.2437 36.2363C49.4456 36.0369 49.7163 35.9258 50.0535 35.9258C50.3445 35.9258 50.6169 36.0369 50.8163 36.2363L73.1713 58.5906C73.5936 59.0129 73.5936 59.7002 73.1721 60.1209Z" fill="#52A8FB"/>
</svg>
